<?xml version="1.0" encoding="UTF-8" standalone="no"?>
<!-- Created with Inkscape (http://www.inkscape.org/) -->

<svg
   width="512"
   height="512"
   viewBox="0 0 512 512"
   version="1.1"
   id="svg5"
   xml:space="preserve"
   sodipodi:docname="ananas-default.svg"
   inkscape:version="1.2 (dc2aedaf03, 2022-05-15)"
   xmlns:inkscape="http://www.inkscape.org/namespaces/inkscape"
   xmlns:sodipodi="http://sodipodi.sourceforge.net/DTD/sodipodi-0.dtd"
   xmlns="http://www.w3.org/2000/svg"
   xmlns:svg="http://www.w3.org/2000/svg"><sodipodi:namedview
     id="namedview7"
     pagecolor="#afafaf"
     bordercolor="#000000"
     borderopacity="0.25"
     inkscape:showpageshadow="2"
     inkscape:pageopacity="0"
     inkscape:pagecheckerboard="true"
     inkscape:deskcolor="#d1d1d1"
     inkscape:document-units="px"
     showgrid="false"
     inkscape:zoom="1.0153329"
     inkscape:cx="262.96794"
     inkscape:cy="267.89243"
     inkscape:window-width="1366"
     inkscape:window-height="707"
     inkscape:window-x="0"
     inkscape:window-y="0"
     inkscape:window-maximized="1"
     inkscape:current-layer="layer1" /><defs
     id="defs2" /><g
     inkscape:label="Logo"
     inkscape:groupmode="layer"
     id="layer1"><rect
       style="fill:#ececec;stroke:none;stroke-width:13.4912;stroke-opacity:0.99094;paint-order:stroke fill markers"
       id="rect292"
       width="435.23703"
       height="435.23703"
       x="39.415493"
       y="38.458363"
       ry="89.138039"
       inkscape:label="Background" /><path
       style="fill:#333333;stroke-width:0.447556"
       d="m 183.69825,394.53305 c -2.93434,-2.2232 -4.8071,-4.2406 -4.68277,-5.04438 0.18133,-1.17217 1.39963,-1.72225 5.9487,-2.68586 4.93137,-1.0446 5.86296,-0.76968 7.34263,2.16668 1.57876,3.13301 2.66644,7.48803 2.11207,8.45652 -0.60937,1.0646 -2.63639,1.0707 -5.24072,0.0157 -1.0027,-0.40616 -2.20076,-0.88955 -2.66235,-1.07417 -0.46157,-0.18463 -1.72946,-1.01023 -2.81756,-1.83457 z m 16.56128,7.32064 c -0.18946,-1.08505 1.00013,-1.36755 7.01829,-1.66665 6.83392,-0.33965 6.75953,-0.35007 7.47112,1.04774 0.33597,0.65999 0.51586,1.96172 0.39971,2.89274 -0.18746,1.50272 -0.33755,1.7571 -1.33716,2.26591 -2.23645,1.1385 -13.202,-2.53482 -13.55203,-4.53978 z m -33.00297,-19.13823 c -4.41022,-3.60545 -5.60428,-6.4258 -3.94659,-9.32184 0.51753,-0.90412 1.32952,-1.81594 1.80444,-2.02624 0.78069,-0.34571 1.15096,0.19528 3.86142,5.64172 3.37546,6.78273 3.76297,7.98865 2.58388,8.04091 -0.76409,0.0339 -2.67256,-1.00151 -4.30316,-2.33454 z m -9.9856,-10.48353 c -2.97385,-3.16281 -4.86218,-9.21509 -4.07492,-13.06057 0.60483,-2.95443 2.92531,-8.00339 3.69015,-8.02918 0.32717,-0.011 1.23148,2.08862 2.06694,4.79909 1.58398,5.13882 3.28125,8.78447 4.38341,9.41536 0.37154,0.21266 1.02106,0.80737 1.4434,1.3216 0.67466,0.82147 0.65074,1.04252 -0.19714,1.82101 -0.53074,0.48734 -1.56034,1.66429 -2.28803,2.61544 -0.74259,0.97069 -1.83964,1.86989 -2.50053,2.04962 -1.27976,0.34802 -1.34054,0.32555 -2.52328,-0.93237 z m 14.2955,4.00571 c -1.70813,-3.54034 -3.00702,-6.60941 -2.88641,-6.82014 0.12064,-0.21071 0.77719,-0.33146 1.45905,-0.2683 0.68187,0.0631 3.48374,-0.76472 6.22638,-1.83972 3.73301,-1.46314 5.2155,-1.82352 5.897,-1.43344 0.57653,0.33002 1.41834,2.06973 2.29574,4.7446 1.85787,5.66379 3.84219,10.11398 4.73855,10.62705 0.40377,0.23113 0.63837,0.58751 0.52134,0.79197 -0.1171,0.20446 -2.74468,0.90496 -5.83922,1.55669 -5.38177,1.13342 -5.70645,1.13913 -7.46657,0.13162 -1.68141,-0.96245 -2.10804,-1.60856 -4.94586,-7.49033 z m 27.40771,19.98711 c -1.31217,-1.26508 -4.7074,-10.24497 -4.20525,-11.12228 0.17134,-0.2993 0.65816,-0.34576 1.08183,-0.10327 0.42367,0.24251 4.24945,-0.003 8.5017,-0.54835 4.25228,-0.54411 8.02174,-0.8231 8.37661,-0.61997 0.35486,0.20312 0.66188,1.43943 0.68229,2.74737 0.0648,4.15427 0.74637,7.84097 1.60159,8.6633 0.45549,0.43797 0.74011,0.95012 0.63249,1.13814 -0.25381,0.44338 -6.14892,1.10769 -10.4737,1.18027 -3.55442,0.0596 -5.09503,-0.27226 -6.19756,-1.33522 z m 18.82666,10.02994 c -0.0377,-0.97987 0.78104,-6.8967 1.00945,-7.29573 0.0451,-0.0787 0.56457,-0.007 1.15438,0.15816 0.99861,0.28063 5.27486,-0.18395 12.38854,-1.34596 3.03027,-0.49499 4.45669,-0.18266 4.28337,0.93791 -0.0531,0.34245 -0.6466,2.08481 -1.31913,3.87191 -1.67968,4.46323 -2.26406,4.83869 -7.99263,5.13539 -4.67193,0.24199 -8.5952,0.17687 -9.17007,-0.15219 -0.17075,-0.0978 -0.33,-0.68701 -0.35391,-1.30949 z m -68.62238,-53.1409 c -1.37392,-3.41977 -1.94822,-8.21627 -1.62661,-13.58563 0.19755,-3.29838 0.52609,-4.71406 1.62324,-6.99432 1.82932,-3.802 2.32703,-3.46868 3.52234,2.35886 1.36861,6.6723 2.33974,9.7269 3.25997,10.25387 0.79201,0.45354 0.72209,0.6405 -2.0515,5.48603 -1.5793,2.75906 -3.04124,5.06285 -3.24876,5.11953 -0.20752,0.0567 -0.87292,-1.13059 -1.47868,-2.63834 z m 17.48973,11.71021 c -1.29619,-1.58322 -6.95399,-14.94965 -6.77026,-15.99458 0.0481,-0.27322 0.63428,-0.56627 1.30272,-0.65119 0.66846,-0.0849 3.27165,-1.6183 5.78492,-3.40749 2.51324,-1.7892 4.96956,-3.27023 5.4585,-3.2912 1.36891,-0.0587 2.34433,1.9278 4.92156,10.02311 1.78231,5.59836 2.53872,7.35101 3.38069,7.83294 0.59654,0.34148 0.97258,0.81666 0.83559,1.05597 -0.26888,0.46973 -8.52253,4.04984 -11.59848,5.03099 -1.85668,0.59222 -2.42425,0.48975 -3.31524,-0.59855 z m 24.68598,12.73029 c -1.17685,-1.83925 -4.67361,-10.90331 -4.93115,-12.78211 -0.17764,-1.29593 0.0431,-1.49312 1.28227,-1.1449 0.60245,0.16932 4.54712,-0.61469 8.76591,-1.74225 4.32602,-1.15622 7.98735,-1.86878 8.39707,-1.63426 1.68498,0.96449 2.53789,2.83652 4.11411,9.02973 1.47716,5.804 1.83872,6.68781 3.18141,7.77669 0.87908,0.7129 1.34911,1.37661 1.11992,1.58137 -0.65581,0.58591 -13.62119,2.29287 -16.27119,2.1422 -3.03861,-0.17276 -4.08693,-0.77053 -5.65848,-3.22624 z m 28.17619,16.8889 c -0.68608,-0.87957 -1.2008,-3.68266 -1.7236,-9.38669 -0.29536,-3.22233 -0.23405,-3.65692 0.49403,-3.50272 1.85854,0.3936 3.12508,0.26465 10.29886,-1.04844 4.11871,-0.7539 7.94905,-1.24666 8.51185,-1.09502 1.51965,0.40947 1.78462,1.83326 1.49306,8.02316 -0.164,3.48199 -0.0289,5.73796 0.36705,6.12621 0.34466,0.33799 0.54574,0.75588 0.44687,0.92863 -0.0989,0.17273 -2.67031,0.60078 -5.71428,0.9512 -9.50787,1.09458 -12.71892,0.86886 -14.17384,-0.99633 z m 18.93698,10.43754 c 4.7e-4,-0.21244 0.32676,-1.47606 0.72512,-2.80801 0.39835,-1.33194 0.8349,-3.36562 0.97011,-4.51926 0.26697,-2.27786 0.69188,-2.78046 1.80972,-2.1406 0.74082,0.42404 4.48528,-0.2371 11.57072,-2.04302 2.24199,-0.57141 4.13605,-0.79811 4.29054,-0.51351 0.16935,0.31197 -0.52446,1.90902 -1.78935,4.11881 -2.29629,4.01169 -3.65707,5.14488 -8.87938,7.39423 -3.60891,1.55444 -8.70039,1.8538 -8.69748,0.51136 z m -81.43514,-64.39539 c -0.58909,-1.5479 -1.39156,-4.97032 -1.78326,-7.6054 -0.39172,-2.63507 -0.9575,-5.79977 -1.2573,-7.03267 l -0.5451,-2.24161 1.61424,-0.49838 c 1.02307,-0.31588 2.92764,-1.72922 5.20055,-3.85921 4.83121,-4.52742 6.60826,-5.67397 7.23735,-4.66949 0.92839,1.48234 2.62099,9.59099 2.97533,14.25377 0.3084,4.05821 0.51131,4.80409 1.45366,5.34349 0.63187,0.36169 0.96604,0.82568 0.78987,1.09673 -0.16791,0.25842 -3.15757,2.31813 -6.6436,4.57717 -4.56644,2.95918 -6.56641,4.01546 -7.15445,3.77864 -0.46361,-0.18663 -1.27898,-1.54462 -1.88729,-3.14304 z m 26.06834,15.45126 c -1.53301,-2.26152 -6.04252,-17.90939 -5.28049,-18.32309 0.28632,-0.15541 0.86032,-0.0882 1.27559,0.14961 0.51904,0.29709 2.75807,-0.46361 7.16432,-2.43405 8.93342,-3.99495 9.89834,-4.30137 11.19968,-3.55648 1.37786,0.78869 2.68522,4.73177 4.47381,13.49327 1.18895,5.82407 1.42159,6.45524 2.54159,6.89499 2.14197,0.84103 1.22105,1.6662 -2.96388,2.65569 -2.20405,0.52114 -5.95464,1.74331 -8.33461,2.71593 -3.42053,1.39786 -4.6754,1.6799 -5.98882,1.34596 -2.31475,-0.58851 -2.66077,-0.83757 -4.08719,-2.94183 z m 32.69716,19.32632 c -0.83189,-1.44491 -5.25393,-18.59212 -4.85105,-18.81084 0.22559,-0.12243 0.83629,0.0213 1.35716,0.31946 1.22618,0.70187 4.10797,0.056 13.1102,-2.93844 6.06191,-2.01636 7.44691,-2.31242 8.36341,-1.78781 1.51684,0.86825 1.76505,1.8133 2.74962,10.46955 0.76963,6.76646 0.98601,7.65514 2.00602,8.23899 0.62883,0.35995 1.15145,0.89505 1.16135,1.18912 0.0232,0.68821 -16.98548,5.71526 -19.12615,5.6529 -1.78941,-0.0521 -4.11104,-1.18746 -4.77056,-2.33293 z m 26.53696,14.29799 c -0.22095,-0.62282 -0.17847,-2.81688 0.0943,-4.87566 0.27288,-2.05879 0.39688,-4.941 0.27559,-6.40489 -0.27632,-3.33512 0.0867,-4.05773 1.6025,-3.19005 0.99205,0.56785 2.31752,0.25247 9.90723,-2.35729 4.81906,-1.65707 9.07923,-2.96377 9.46699,-2.90379 1.53435,0.23735 1.35687,3.21505 -0.685,11.49311 -0.71172,2.88535 -0.73391,3.7134 -0.11967,4.46134 l 0.75427,0.91839 -1.83369,0.60886 c -5.30067,1.76007 -14.99459,4.3288 -16.18789,4.28952 -1.8149,-0.0597 -2.78721,-0.66529 -3.27474,-2.03954 z m -98.98803,-59.9137 c -0.71038,-3.52583 -0.55014,-7.28123 0.46831,-10.9743 0.8231,-2.98466 5.78671,-11.62743 6.55214,-11.4086 0.24375,0.0697 0.30526,2.20976 0.1367,4.75576 -0.30751,4.64475 0.0333,7.42705 1.17685,9.60823 0.56182,1.07156 0.52257,1.22852 -0.46129,1.84469 -0.77104,0.48289 -1.75177,1.94364 -3.46545,5.16161 -2.9113,5.46686 -3.48325,5.59828 -4.40719,1.01264 z m 118.72824,63.86443 c 1.55767,-2.79557 2.93518,-5.30349 3.06119,-5.5731 0.12591,-0.26969 0.72056,-0.3354 1.32132,-0.14614 0.89371,0.28156 2.13937,-0.35223 6.85327,-3.487 4.50811,-2.99789 5.75922,-3.64671 5.7528,-2.98335 -0.005,0.46625 -1.44096,3.20004 -3.19214,6.07506 -2.89549,4.75373 -3.37842,5.35186 -5.33052,6.60194 -2.68039,1.71646 -10.38302,5.11922 -10.90794,4.81877 -0.23812,-0.1363 0.7131,-2.20313 2.44205,-5.30616 z m -86.96491,-63.48207 c -0.68029,-1.10007 -2.95566,-16.78833 -3.00765,-20.73723 l -0.0228,-1.72532 1.74504,-0.023 c 0.98819,-0.0129 2.78222,-0.63372 4.13644,-1.43113 4.44099,-2.61504 12.18793,-6.10164 13.53224,-6.09032 2.14143,0.0179 2.67299,1.3664 3.17338,8.04977 0.73707,9.84471 1.03973,11.49008 2.34527,12.74957 2.29646,2.21545 2.07406,2.66351 -2.18268,4.39749 -2.10982,0.85941 -6.50173,2.76221 -9.75987,4.22843 -7.26316,3.26857 -8.26179,3.3269 -9.95947,0.58171 z m 33.63677,19.19248 c -0.46701,-0.78025 -2.24783,-6.48792 -3.95737,-12.6837 -2.40423,-8.71342 -2.94679,-11.32553 -2.39533,-11.53195 0.39213,-0.1468 1.76797,-0.0155 3.05742,0.29165 2.03228,0.48415 2.96462,0.3451 7.00148,-1.04438 2.56134,-0.8816 7.00524,-2.30595 9.87536,-3.16522 7.20727,-2.1578 7.28558,-2.09542 8.78487,6.99935 0.61953,3.75819 1.5859,8.43042 2.14747,10.38274 0.85281,2.9648 1.24764,3.67936 2.39628,4.33685 0.75639,0.43296 1.38371,1.03841 1.39406,1.34547 0.009,0.30706 -1.96594,1.09032 -4.39176,1.74061 -2.42581,0.65028 -7.1787,2.20204 -10.56198,3.44839 -3.38329,1.24632 -6.88717,2.33905 -7.78636,2.42828 -2.28316,0.22652 -4.51525,-0.79565 -5.56414,-2.54809 z m -55.87979,-33.25514 c -0.93104,-4.15828 1.53902,-15.68086 4.41585,-20.59953 1.51148,-2.58448 5.21072,-6.50405 8.92664,-9.45863 1.79268,-1.42541 2.10916,1.4915 1.16625,10.74844 -0.60647,5.95385 -0.57603,6.43545 0.49163,7.77535 1.05637,1.32582 1.0703,1.50372 0.19376,2.47702 -1.46563,1.62748 -6.79858,6.54154 -10.03922,9.25065 -3.48551,2.91381 -4.46747,2.87698 -5.15491,-0.1933 z m 89.86415,52.29396 c -0.27299,-0.58004 -0.53736,-2.18175 -0.58748,-3.55936 -0.0502,-1.37761 -0.56028,-5.79008 -1.13368,-9.8055 -0.57342,-4.01541 -0.91877,-7.51995 -0.76745,-7.78787 0.15469,-0.27517 0.75098,-0.21475 1.36715,0.13795 1.44275,0.82582 2.35443,0.57127 10.80843,-3.01794 8.60109,-3.65165 11.71197,-4.46786 12.46234,-3.26976 0.28232,0.45079 0.53324,5.16538 0.55756,10.47684 0.0348,7.61294 0.22427,9.87533 0.89459,10.68753 0.46768,0.56668 0.68263,1.21017 0.47766,1.43002 -0.41665,0.44686 -11.0725,4.42145 -15.91035,5.93446 -4.66608,1.45933 -7.07491,1.09769 -8.16877,-1.22637 z m 23.83905,13.25569 c -0.14941,-0.98188 0.32631,-3.06129 2.14476,-9.37523 1.88924,-6.55961 2.04665,-6.86102 3.51239,-6.72527 0.81445,0.0755 2.07205,-0.62581 4.29459,-2.39468 4.57175,-3.63856 12.01947,-8.8168 12.71466,-8.84021 0.78666,-0.0265 0.53294,1.40568 -0.94696,5.34527 -2.87324,7.64882 -3.38772,9.63343 -2.85308,11.00557 l 0.51933,1.33291 -2.71043,2.31199 c -4.85881,4.14451 -11.0989,7.6535 -14.50495,8.15656 -1.72744,0.25513 -2.02419,0.14346 -2.17031,-0.81691 z m 16.1329,-1.33716 c 0.82864,-3.25892 1.61386,-4.11086 5.0557,-5.48528 0.55793,-0.22278 0.47457,2.08284 -0.11234,3.10825 -0.75032,1.31084 -4.55461,4.53337 -5.03032,4.26108 -0.18823,-0.1077 -0.14909,-0.95558 0.087,-1.88405 z M 146.26318,301.08155 c 0.21733,-4.55287 4.21653,-11.67109 5.98761,-10.65733 0.63394,0.36287 0.55029,4.94797 -0.14461,7.9275 -0.38365,1.64505 -0.63638,1.97984 -2.44336,3.23647 -2.3807,1.65563 -3.49487,1.4896 -3.39959,-0.50661 z m 56.27852,18.1597 c -1.70002,-1.80318 -2.01057,-3.23283 -2.62992,-12.10745 -0.35051,-5.02233 -0.85767,-10.38 -1.12701,-11.90589 -0.26933,-1.52592 -0.40215,-2.92735 -0.29515,-3.11429 0.10696,-0.18696 0.98618,-0.132 1.95368,0.12211 1.50607,0.39557 2.65098,0.10222 7.95899,-2.03919 7.67699,-3.09716 14.05456,-4.96702 15.03229,-4.40735 1.33728,0.76546 2.30787,4.42431 4.32844,16.31707 0.9777,5.75462 1.0014,5.8143 2.69277,6.78244 0.9385,0.53721 1.65004,1.07518 1.58108,1.19564 -0.19883,0.34736 -10.0257,4.83517 -12.22962,5.58512 -1.09747,0.37346 -4.39432,1.6959 -7.32634,2.9388 -6.40936,2.71692 -7.88586,2.81095 -9.93921,0.63299 z m -31.25733,-18.86253 c -0.11049,-0.58047 0.12213,-4.56636 0.51715,-8.8575 0.39497,-4.29113 0.76158,-8.75421 0.81467,-9.91795 0.11942,-2.61857 0.77159,-3.84728 1.88249,-3.54687 0.54851,0.14831 1.75662,-0.52189 3.50285,-1.94329 4.00559,-3.26048 8.90799,-6.32186 11.5492,-7.21208 2.09608,-0.7065 2.41934,-0.69101 2.94035,0.14087 0.63878,1.01997 0.7539,5.06851 0.37085,13.04216 -0.2391,4.97757 -0.20495,5.16852 1.05342,5.88882 0.71532,0.40944 1.30815,0.96978 1.31743,1.24516 0.009,0.27543 -2.42756,1.96632 -5.41518,3.75756 -2.98765,1.79125 -7.39025,4.56166 -9.78357,6.15645 -2.39332,1.5948 -4.79686,3.05081 -5.34118,3.23559 -1.29026,0.43802 -3.15327,-0.6491 -3.40848,-1.9889 z m 68.07279,39.00023 c -1.32211,-2.46766 -4.23586,-23.87207 -3.43914,-25.26396 0.10044,-0.17551 0.75617,-0.12748 1.45709,0.10671 0.98411,0.32883 2.41648,-0.0698 6.28737,-1.74971 4.26877,-1.8526 14.97598,-5.44396 16.77137,-5.62538 0.94454,-0.0955 1.14045,0.18315 1.96672,2.79671 0.8158,2.58043 0.87112,3.05422 1.32252,11.32584 0.42935,7.86754 0.65665,8.88476 2.18035,9.75692 0.72978,0.41773 1.25086,0.89226 1.15797,1.05455 -0.0929,0.16227 -3.41618,1.60994 -7.38512,3.21702 -3.96891,1.60709 -8.6216,3.83672 -10.33929,4.95474 -2.39365,1.55794 -3.58309,2.02911 -5.09261,2.01728 -2.38154,-0.0187 -3.95652,-0.85358 -4.88724,-2.59076 z m 31.32394,17.78734 c -0.21745,-0.7007 -0.14467,-5.12961 0.1617,-9.84203 0.30637,-4.71242 0.40656,-9.5529 0.22264,-10.75665 -0.41,-2.68339 -0.28139,-2.93834 1.25486,-2.4876 1.87904,0.55129 2.40985,0.33976 7.30968,-2.91302 5.61552,-3.72789 10.19769,-6.19372 11.44369,-6.15821 1.1168,0.0318 1.31669,1.20352 1.41603,8.30093 0.10805,7.71971 0.19674,8.63793 0.93318,9.66212 0.44441,0.61804 0.52142,1.30479 0.20778,1.85271 -0.48043,0.83933 -12.59106,10.43199 -16.16048,12.80048 -3.58681,2.38006 -5.95791,2.21985 -6.78908,-0.45873 z m 18.50501,8.15915 c 0.2577,-0.91612 1.02458,-2.88591 1.7042,-4.37733 0.67958,-1.49143 1.85615,-5.22712 2.6146,-8.30154 2.0156,-8.1707 1.82092,-7.65746 2.71129,-7.1478 0.91326,0.52274 1.84315,-0.16231 5.21951,-3.84526 1.32164,-1.44163 2.601,-2.50777 2.84306,-2.36921 0.61604,0.35262 0.51945,4.00495 -0.17925,6.77614 -0.82599,3.27605 -5.485,12.16754 -7.94611,15.16475 -2.78981,3.39748 -6.25122,6.44396 -6.89981,6.0727 -0.2955,-0.16914 -0.32577,-1.05418 -0.0675,-1.97245 z M 156.25056,288.74657 c 0.74749,-5.99234 4.93135,-13.63104 10.26376,-18.73912 2.98254,-2.85708 5.28462,-4.49215 5.86053,-4.16249 0.44014,0.25193 -0.0176,3.28555 -1.11767,7.40728 l -0.96763,3.62551 -3.01308,2.86268 c -1.65717,1.57448 -4.44906,4.70942 -6.20421,6.96652 -1.7551,2.25711 -3.3471,4.18859 -3.53775,4.2922 -0.8612,0.46801 -1.4865,-0.62896 -1.28395,-2.25258 z m 77.66732,15.67966 c -0.73,-1.30222 -1.27081,-3.95109 -1.75742,-8.6075 -0.38662,-3.69952 -1.03929,-8.19526 -1.45036,-9.99052 -1.23985,-5.41465 -1.27277,-5.22065 0.83625,-4.92999 1.17992,0.1626 3.11436,-0.22377 5.39871,-1.0783 6.29569,-2.35513 14.09538,-3.49788 16.0883,-2.35715 2.31126,1.32298 6.06245,11.70917 5.81089,16.08901 -0.16306,2.83865 -0.14471,2.88468 1.61233,4.0458 0.97747,0.64598 1.69277,1.32206 1.58953,1.50242 -0.10327,0.18038 -2.17492,1.24442 -4.60374,2.36456 -2.42881,1.12011 -6.58374,3.07203 -9.23319,4.33758 -5.97754,2.85525 -8.50685,3.22432 -11.25798,1.6428 -1.41123,-0.81061 -2.28145,-1.67744 -3.03332,-3.01871 z m -35.52089,-20.6633 c -0.31926,-0.78922 -0.52252,-2.61722 -0.4517,-4.0622 0.0707,-1.44498 0.0722,-5.41512 0.003,-8.82253 -0.15534,-7.66346 -0.0509,-8.24822 1.40061,-7.8403 1.14429,0.32161 1.38734,0.23905 8.19404,-2.7834 6.73212,-2.98932 10.88486,-4.147 12.19193,-3.39883 0.96003,0.54952 1.17781,1.37153 1.6508,6.23075 0.29966,3.07873 0.64968,7.04646 0.77781,8.81714 0.18286,2.52719 0.49076,3.47964 1.43195,4.42949 0.65944,0.66553 1.244,1.37633 1.29899,1.57956 0.14708,0.54349 -4.31251,2.60995 -11.39869,5.28183 -10.05608,3.79172 -11.01442,4.00915 -12.90377,2.92767 -1.06131,-0.60749 -1.81359,-1.41599 -2.19514,-2.35918 z m 72.00644,41.58422 c -0.2705,-0.59797 -0.63382,-2.33498 -0.80741,-3.86005 -0.17363,-1.52506 -0.94705,-6.32033 -1.71874,-10.65613 -1.73125,-9.72706 -1.73523,-9.87834 -0.23784,-9.02122 1.50148,0.85944 2.40597,0.6355 9.43342,-2.33566 7.6563,-3.237 8.96441,-3.63549 9.99615,-3.04492 1.04349,0.59729 1.88815,3.2523 3.76102,11.82201 0.86206,3.9446 1.74327,6.79938 2.1751,7.04656 1.27422,0.72937 0.82669,1.37226 -1.97487,2.8369 -1.50381,0.78619 -5.31305,3.20722 -8.46495,5.38008 -3.15192,2.17287 -6.27211,4.06925 -6.93378,4.21422 -1.64776,0.36101 -4.59474,-0.98156 -5.2281,-2.38179 z m -95.09509,-56.14708 c 0.29088,-2.99915 1.87295,-8.23209 3.93054,-13.0009 1.75716,-4.07247 2.09861,-4.61979 3.78701,-6.06996 2.14394,-1.84144 7.81425,-4.72314 10.59556,-5.38473 l 1.90931,-0.45417 0.33731,1.86077 c 0.36099,1.99145 -0.28586,6.11138 -1.60009,10.19117 -0.66034,2.05001 -0.66636,2.65093 -0.0326,3.26032 0.42736,0.4109 0.62361,1.01504 0.43615,1.34254 -0.32067,0.56019 -11.1063,7.1015 -15.96665,9.68347 -2.70973,1.4395 -3.63688,1.04956 -3.39655,-1.42851 z m 121.16515,69.60594 c -0.3446,-1.63456 -0.28258,-20.07928 0.0696,-20.68596 0.12873,-0.22296 0.87092,-0.4035 1.64816,-0.40186 1.06185,0.002 2.01603,-0.54134 3.83802,-2.18649 3.73312,-3.37081 6.84497,-5.30657 7.87378,-4.89798 1.29267,0.51339 2.4177,6.16593 2.13864,10.7454 -0.31621,5.18913 -1.49689,7.49722 -6.39432,12.50023 -6.95195,7.10179 -8.53593,7.95246 -9.17386,4.92666 z M 168.62071,263.13564 c 0.0336,-2.08126 3.21261,-7.22182 5.45573,-8.82222 2.89581,-2.06604 3.28996,-1.3568 1.60209,2.88297 -1.54229,3.8741 -2.91311,5.44053 -5.81844,6.64867 l -1.25931,0.52366 z m 139.29116,74.84596 c -0.0133,-1.01616 0.17965,-2.20387 0.42892,-2.63936 0.49708,-0.86839 2.90494,-2.38393 3.3672,-2.11933 0.54329,0.31098 -0.67572,3.84943 -1.79667,5.21526 -1.50971,1.83948 -1.97059,1.73423 -1.99945,-0.45657 z M 227.6043,271.88261 c -0.51249,-1.66326 -1.27254,-5.31641 -1.689,-8.11808 -0.41646,-2.80168 -0.95794,-6.07976 -1.20329,-7.28464 -0.58487,-2.8722 0.0148,-3.98663 1.64364,-3.0543 1.00344,0.57437 2.4066,0.38905 8.50748,-1.12368 8.87143,-2.1997 10.97319,-2.41345 12.19348,-1.24011 0.52119,0.50114 1.78866,4.22715 3.07483,9.0391 1.43522,5.36956 2.47077,8.34827 3.00948,8.65664 0.45172,0.25856 0.66358,0.61052 0.47081,0.78214 -0.19275,0.17164 -5.29258,1.6825 -11.3329,3.35748 -13.12867,3.64064 -13.24256,3.63276 -14.6745,-1.01454 z m -28.63921,-15.82467 c -0.43246,-0.7006 -0.57618,-2.19886 -0.38015,-3.96288 0.36823,-3.31344 2.25017,-10.27645 3.03708,-11.23688 0.63961,-0.78063 14.46223,-5.23891 16.24453,-5.23943 1.14145,-3.3e-4 1.24762,0.14795 1.63229,2.27994 0.2263,1.25415 0.34229,4.27505 0.25773,6.7131 -0.1399,4.0339 -0.0512,4.49146 0.9851,5.08466 0.62635,0.35853 1.04419,0.81721 0.9285,1.01929 -0.11564,0.20211 -3.20101,1.27883 -6.85626,2.39269 -3.65526,1.11388 -7.75046,2.59653 -9.10045,3.29479 -3.81406,1.97277 -5.36659,1.89333 -6.74837,-0.34528 z m 65.71882,37.36748 c -0.54214,-0.87812 -1.24209,-3.08003 -1.55544,-4.89315 -0.31332,-1.8131 -1.46345,-6.41875 -2.55584,-10.23474 -1.09236,-3.81598 -1.71377,-6.80589 -1.38086,-6.64419 0.33296,0.16157 1.13177,0.63376 1.77526,1.04913 0.90672,0.58519 1.57629,0.60305 2.97532,0.0793 3.05674,-1.14427 12.90158,-3.89472 14.22617,-3.97451 2.06631,-0.12445 2.90417,1.24924 4.58313,7.5143 1.70092,6.34704 3.42931,10.31679 4.84453,11.12685 1.52422,0.87248 1.01063,1.47782 -2.12189,2.50097 -1.6705,0.54565 -5.46892,2.15285 -8.44092,3.57161 -2.97199,1.41874 -5.95531,2.69731 -6.62958,2.84124 -1.81801,0.38812 -4.52528,-1.0019 -5.71989,-2.93683 z m 30.27257,16.15632 c -0.42694,-1.44981 -1.29897,-5.94494 -1.93784,-9.98915 l -1.16157,-7.35315 1.52042,-0.0403 c 0.83626,-0.0221 1.67534,-0.31085 1.86463,-0.64157 0.40751,-0.71191 3.65504,-2.91202 7.31591,-4.9563 3.63151,-2.02787 4.10032,-1.65233 5.63808,4.51649 0.68038,2.7294 1.36003,5.90401 1.51033,7.05469 0.15031,1.15069 0.60412,2.57986 1.00845,3.17593 0.55475,0.81786 0.56711,1.31732 0.0504,2.03559 -0.88457,1.22951 -9.99236,8.81796 -11.51195,9.59152 -1.86505,0.94944 -3.36726,-0.23703 -4.29682,-3.39374 z m 19.46,1.16276 c -0.14019,-1.68012 -0.39526,-3.97349 -0.56682,-5.09639 l -0.31196,-2.04165 1.21808,-0.19754 c 0.66994,-0.10868 1.36446,-0.52777 1.54335,-0.9314 0.17893,-0.40364 0.53603,-1.05531 0.7936,-1.4482 0.45569,-0.6952 0.47853,-0.68296 0.85013,0.45618 0.68679,2.10514 0.0164,7.99145 -1.17767,10.33975 -0.6416,1.26191 -1.30218,2.11698 -1.5946,2.06418 -0.27454,-0.0496 -0.61393,-1.46481 -0.7541,-3.1449 z M 191.58036,240.13984 c 0.0442,-1.54928 3.0435,-5.86725 4.96777,-7.15178 0.86871,-0.57991 2.09247,-1.08105 2.71945,-1.11365 1.04489,-0.0543 1.15422,0.0841 1.31053,1.65939 0.23066,2.3249 -1.01774,5.1553 -2.63759,5.97991 -1.7801,0.90619 -5.67381,2.13468 -6.06188,1.91255 -0.18125,-0.1038 -0.31548,-0.68267 -0.29828,-1.28642 z m 33.03723,7.52075 c -0.66598,-3.08276 -0.63295,-13.60121 0.0465,-14.7881 0.12499,-0.21838 0.59373,-0.18727 1.04167,0.0691 0.45192,0.25869 2.50467,0.0848 4.61218,-0.39058 4.5383,-1.0238 11.68823,-1.62423 12.66739,-1.06375 0.8823,0.50504 1.55292,3.73235 1.53083,7.36724 -0.0178,2.92784 0.51033,4.63064 1.63601,5.27498 1.45125,0.8307 0.6637,1.64277 -2.18666,2.25485 -18.07217,3.88072 -18.77518,3.92707 -19.34785,1.27623 z m 30.69526,16.30724 c -1.18534,-2.75488 -3.82067,-13.8572 -3.59482,-15.14449 0.0418,-0.23815 0.52765,-0.17448 1.07973,0.14153 0.72904,0.4173 2.87225,0.16627 7.8306,-0.9172 7.7449,-1.69235 8.90721,-1.56193 10.9335,1.2269 0.69049,0.95034 1.95856,3.75322 2.81794,6.22862 1.57787,4.54499 2.79806,6.90121 3.9007,7.53235 1.29165,0.73936 -0.26502,1.40826 -8.34388,3.58537 -11.1,2.99127 -12.28796,2.77574 -14.62377,-2.65308 z m 33.56255,19.95837 c -0.90043,-1.46139 -5.85759,-17.64825 -5.38684,-17.58982 2.03479,0.25254 3.8337,-0.17711 7.02516,-1.67791 2.14473,-1.00857 4.58483,-1.91485 5.42246,-2.01394 l 1.52295,-0.18017 1.20769,1.77035 c 0.66424,0.9737 2.21541,4.31478 3.44706,7.42467 1.23166,3.10988 2.62423,6.02437 3.0946,6.47666 0.4704,0.45229 0.73652,1.02979 0.5914,1.28332 -0.37783,0.66008 -9.5996,5.99159 -11.81018,6.82797 -2.23602,0.84602 -3.52274,0.26204 -5.1143,-2.32113 z m 22.88884,9.28251 c -0.85473,-2.99773 -1.85532,-6.96654 -2.22353,-8.81956 l -0.66947,-3.36915 1.43943,-1.0892 c 0.79167,-0.59905 2.08631,-1.95373 2.87695,-3.01039 0.83947,-1.12193 1.71051,-1.879 2.09369,-1.81974 1.5935,0.2465 3.68218,9.37071 3.40258,14.86385 -0.19736,3.87744 -3.06944,9.15559 -4.79361,8.80944 -0.31456,-0.0632 -1.27129,-2.56751 -2.12604,-5.56525 z M 204.26782,232.95352 c 0.74895,-3.18138 2.27039,-5.72903 3.9748,-6.65583 0.76233,-0.41453 4.29825,-1.61723 7.85759,-2.67272 6.12894,-1.81746 6.48667,-1.86325 6.75816,-0.86492 0.15766,0.57977 -0.009,1.57164 -0.37161,2.20415 -0.90664,1.58392 -1.19779,4.4179 -0.49516,4.82008 1.39222,0.79691 0.16234,1.4413 -7.05452,3.69623 -6.94975,2.17149 -9.70944,2.69446 -10.83093,2.05251 -0.21598,-0.12362 -0.14323,-1.2844 0.16167,-2.5795 z m 45.74765,10.02857 c -0.9983,-1.33081 -1.46022,-3.1925 -2.06988,-8.34255 -0.48332,-4.08283 -0.40827,-4.67218 0.52693,-4.13687 0.3285,0.18804 3.20491,0.0896 6.39204,-0.21876 3.18711,-0.30836 6.26406,-0.42873 6.83766,-0.26754 1.79459,0.50438 2.65086,1.75125 4.12726,6.01007 0.78688,2.2698 1.91971,4.60438 2.51742,5.18793 l 1.08674,1.06104 -6.81594,1.20834 c -3.74878,0.66457 -7.24902,1.28503 -7.77831,1.37881 -1.56706,0.27761 -3.88193,-0.62477 -4.82392,-1.88047 z m 56.20901,32.09177 c -0.32225,-0.67579 -1.40222,-3.45132 -2.39995,-6.16785 -0.99773,-2.7165 -2.25471,-5.88363 -2.7933,-7.03805 -1.11832,-2.39703 -1.07541,-2.78886 0.24778,-2.26318 0.66736,0.26511 1.75879,-0.1329 3.75284,-1.36863 3.80303,-2.35676 4.30386,-2.08723 6.82826,3.67474 2.28065,5.20559 2.34857,7.30235 0.34815,10.74687 -2.4709,4.25471 -4.68145,5.14724 -5.98378,2.4161 z m -81.03449,-46.44235 c -0.84321,-1.6018 1.21345,-6.07835 3.53442,-7.69311 2.69803,-1.87708 11.82426,-3.22234 13.87951,-2.04591 0.27611,0.15804 0.54221,1.82606 0.59129,3.70665 0.0562,2.14716 0.37208,3.69395 0.84944,4.1576 0.41809,0.40606 0.62694,0.85202 0.4641,0.99102 -0.28119,0.24008 -9.60929,1.58167 -14.89893,2.14283 -2.41976,0.25669 -3.83399,-0.14617 -4.41983,-1.25908 z m 54.457,29.68505 c -1.96748,-4.06246 -4.55428,-10.27946 -4.7497,-11.41526 -0.15029,-0.87343 -0.0793,-1.0068 0.47702,-0.89659 0.35944,0.0713 3.03738,-0.43428 5.95091,-1.12329 2.91356,-0.68903 5.67432,-1.17142 6.13506,-1.07198 1.28334,0.27695 2.09858,1.52828 4.4166,6.77922 1.17323,2.65767 2.63914,5.48916 3.25759,6.29216 1.41077,1.8318 1.31747,1.89567 -5.90888,4.04544 -4.96702,1.47763 -5.62446,1.55578 -6.90067,0.82019 -0.98309,-0.56695 -1.79453,-1.60583 -2.67793,-3.42989 z m -32.91578,-32.57484 c -0.6039,-1.42746 -0.49045,-4.43063 0.21405,-5.66492 0.42475,-0.74401 1.42552,-1.46025 2.73004,-1.95355 1.80422,-0.68231 2.07353,-0.92964 2.17222,-1.99508 0.062,-0.66891 -0.36611,-1.83928 -0.95124,-2.60083 -1.15175,-1.49903 -7.19941,-7.07436 -10.09157,-9.30347 -2.44003,-1.88061 -4.19923,-3.75369 -4.35308,-4.63487 -0.2929,-1.67777 6.51893,1.62933 22.2297,10.79233 6.01104,3.5058 7.45355,4.50821 9.03908,6.28117 1.04556,1.16917 2.12667,2.05208 2.42517,1.98055 0.79866,-0.19142 3.0518,-3.10474 5.03888,-6.51536 1.43606,-2.46481 1.8993,-2.98666 2.56058,-2.88436 1.47835,0.22869 8.15772,11.48651 10.41052,17.54653 1.2291,3.30628 1.91515,3.89938 5.68547,4.91502 1.69657,0.457 6.26137,2.39552 10.45271,4.43887 8.03446,3.91698 14.58736,8.11333 19.60617,12.55537 3.99924,3.53969 7.91146,9.90781 6.34797,10.33301 -0.21845,0.0594 -1.46646,-0.78659 -2.77336,-1.87992 -3.059,-2.55913 -16.05674,-9.59962 -19.1763,-10.38722 -2.87211,-0.72512 -4.05681,-0.1335 -3.36578,1.68079 0.27631,0.72539 0.92437,1.687 1.44012,2.13687 l 0.93777,0.81798 -1.94749,1.22702 c -1.0711,0.67487 -2.16922,1.6144 -2.44024,2.08787 -0.74721,1.30541 -3.10865,2.08102 -4.28531,1.40748 -0.62988,-0.36054 -2.16673,-2.94043 -4.07766,-6.84508 -2.73679,-5.59219 -3.24538,-6.35889 -4.7267,-7.12557 -2.57389,-1.33217 -5.16243,-1.42533 -9.48132,-0.34119 -6.66528,1.67313 -7.93692,0.77639 -11.10535,-7.83116 -0.74194,-2.01563 -1.29975,-2.76714 -2.91426,-3.92642 -3.46772,-2.48992 -5.25596,-2.89923 -11.60034,-2.65536 -5.87821,0.22597 -7.33133,-0.0749 -8.00045,-1.6565 z m 44.11653,1.44548 c -0.2288,-1.31057 1.15844,-2.08385 6.41524,-3.57621 7.96234,-2.2604 15.28316,-2.12428 22.25081,0.4137 2.55033,0.92894 8.7961,4.62303 11.17268,6.60807 5.93263,4.95529 10.99038,11.21561 9.40414,11.64016 -0.25563,0.0684 -2.05912,-0.5433 -4.00773,-1.35938 -6.68664,-2.80037 -10.7899,-3.53259 -17.69278,-3.15734 -1.99894,0.10867 -4.11329,0.0529 -4.69858,-0.12401 -0.58528,-0.17685 -3.95936,-1.75023 -7.49793,-3.49638 -5.65114,-2.78858 -11.31281,-5.09469 -14.24765,-5.80338 -0.58236,-0.14061 -0.99871,-0.57449 -1.0982,-1.14523 z m -23.7243,-14.88733 c -0.54755,-0.52994 -2.99325,-2.13577 -5.4349,-3.56851 -6.45413,-3.78717 -6.6997,-4.11192 -7.93744,-10.4939 -1.45802,-7.51782 -4.21409,-14.748 -8.25394,-21.65312 -0.65657,-1.12224 -1.26875,-2.46994 -1.3604,-2.99489 -0.14431,-0.82663 -0.021,-0.97203 0.92054,-1.08592 1.36832,-0.16546 1.40557,-0.1358 14.3303,11.41805 13.05003,11.66583 14.6965,13.53579 16.03996,18.21712 l 1.01136,3.52403 -2.21637,3.29788 c -3.68697,5.48612 -3.90102,5.69471 -5.07929,4.95008 -0.56331,-0.3561 -1.47228,-1.08089 -2.01982,-1.61082 z m 18.81055,4.81391 c -1.80712,-2.87835 -3.42705,-6.01204 -3.59987,-6.96372 -0.85044,-4.68347 3.27544,-9.08743 12.13086,-12.94842 4.13529,-1.803 6.21408,-2.30852 7.19177,-1.74888 0.71993,0.41208 2.23175,5.53714 2.88038,9.76449 0.61322,3.99669 0.001,10.63884 -1.16888,12.68277 -1.04367,1.82333 -2.71128,2.82003 -5.24487,3.1348 -1.16305,0.14448 -3.42044,0.63077 -5.01644,1.08063 -1.59604,0.44986 -3.12358,0.68603 -3.39457,0.52481 -0.2712,-0.16086 -1.97124,-2.64814 -3.77838,-5.52648 z M 277.9286,201.7985 c -0.38508,-1.45626 -1.32619,-3.5991 -2.09135,-4.76192 -1.56966,-2.3854 -6.6272,-7.55983 -9.53527,-9.75568 -1.28887,-0.9732 -2.29506,-2.21176 -3.02532,-3.72394 -0.60181,-1.24616 -1.94002,-4.0314 -2.97382,-6.1894 -4.91037,-10.25021 -11.07054,-18.91634 -20.61999,-29.00822 -3.85553,-4.07455 -7.11596,-7.78548 -7.2454,-8.24648 -0.32016,-1.14034 0.67244,-1.84446 2.26699,-1.6081 2.12653,0.31518 10.982,5.10157 14.92825,8.06872 8.03214,6.03931 12.49716,11.27826 23.25859,27.29007 11.78706,17.53782 14.38147,22.60485 12.89963,25.19367 -0.96169,1.68009 -5.06751,5.62049 -5.89527,5.65775 -1.11824,0.0504 -1.22395,-0.10647 -1.96704,-2.91647 z m 28.91178,16.60436 c -0.0509,-0.38368 0.1215,-3.39805 0.38322,-6.69859 0.46623,-5.88052 0.50158,-6.01768 1.76127,-6.83163 1.64195,-1.06095 8.19824,-2.27135 14.78155,-2.72896 14.90587,-1.03604 36.51694,3.34425 50.33701,10.20268 6.95719,3.45263 12.66736,8.49996 11.64226,10.29081 -0.4051,0.70772 -1.43294,0.53178 -3.36974,-0.57684 -4.25445,-2.43527 -14.94149,-5.00291 -24.85479,-5.97155 -13.44175,-1.31338 -24.62598,-0.59485 -33.7562,2.16874 -5.88109,1.78013 -7.57946,1.97364 -12.54913,1.4299 -4.65093,-0.50886 -4.2572,-0.39329 -4.37545,-1.28456 z m -18.30469,-24.14085 c -0.24867,-0.30884 -3.08167,-4.90352 -6.29556,-10.2104 -3.2139,-5.3069 -8.21027,-13.20801 -11.10305,-17.55806 -7.97066,-11.98596 -9.26878,-14.88459 -13.23735,-29.55819 -1.86925,-6.9114 -4.47248,-15.74222 -5.78498,-19.624 -1.78946,-5.29252 -2.26623,-7.33894 -1.90612,-8.18184 0.42606,-0.99724 0.60947,-1.05003 1.62192,-0.47051 0.62793,0.35942 1.7154,1.42578 2.41659,2.36967 0.70122,0.9439 3.8463,4.7241 6.9891,8.40046 9.78228,11.44298 12.83591,15.3397 18.02973,23.00755 7.73693,11.42241 11.11718,18.36175 13.89193,28.51915 1.5469,5.66261 3.33505,16.96682 3.21813,20.34412 -0.061,1.7621 -1.54838,3.06897 -4.13526,3.63342 -2.30369,0.50267 -2.83771,0.40589 -3.70508,-0.67137 z m 17.61049,5.72149 c -0.28828,-0.48735 -0.80974,-2.08369 -1.15877,-3.54738 -0.67905,-2.84772 -0.44025,-2.64251 -4.63894,-3.98641 -0.88223,-0.28236 -1.18588,-0.70585 -1.36219,-1.89957 -0.59401,-4.0218 2.72111,-5.5409 17.05076,-7.81322 18.15654,-2.87919 43.6319,-5.44186 54.18452,-5.45063 10.90353,-0.008 22.15782,1.60518 30.27519,4.34255 3.26042,1.09949 3.90591,1.44987 5.31149,2.88313 0.88003,0.89735 1.47641,1.76827 1.32531,1.93541 -0.15114,0.1671 -1.48026,0.0317 -2.95367,-0.30092 -4.86468,-1.0982 -8.71898,-0.51362 -21.84272,3.31294 -27.81641,8.11055 -32.52912,9.03947 -47.14423,9.29276 -8.55923,0.14832 -18.39539,1.15507 -23.63644,2.4192 -3.18344,0.76787 -4.41312,0.49789 -5.41031,-1.18786 z m -8.5463,-18.06922 c -0.29659,-1.23339 -0.95778,-4.57063 -1.46932,-7.4161 -1.72634,-9.60294 -4.09106,-16.06404 -8.87582,-24.2513 -3.56557,-6.10109 -4.05945,-7.96401 -3.20928,-12.10559 1.76897,-8.61751 1.46543,-14.59601 -1.22712,-24.16858 -1.10221,-3.91861 -1.84,-7.4113 -1.63952,-7.76154 0.63142,-1.10313 2.6155,-0.15638 4.69843,2.24197 2.84346,3.27402 10.91944,13.80936 14.15029,18.4594 6.59458,9.49143 9.81665,19.1529 10.71349,32.12486 0.69957,10.11869 -1.50175,17.67629 -6.50369,22.32847 -2.22423,2.06869 -4.85474,3.50269 -5.62087,3.06415 -0.26255,-0.15028 -0.72003,-1.28237 -1.01659,-2.51574 z m 12.20742,-4.0998 c 2.01171,-3.52436 3.32079,-7.29375 3.57361,-10.2898 0.12176,-1.44209 0.38713,-2.91576 0.58991,-3.27483 0.58989,-1.04532 6.72721,-3.87084 12.94762,-5.96149 13.15364,-4.42088 28.13172,-5.96413 50.19614,-5.17185 7.14416,0.25652 8.25642,0.49608 8.06448,1.73695 -0.14302,0.92453 -1.23765,1.39338 -15.4965,6.63749 -6.29402,2.31482 -12.91602,4.9904 -14.71557,5.94575 -3.36979,1.78897 -10.45088,6.30221 -13.27745,8.46257 -1.30318,0.99604 -2.96586,1.39796 -8.95851,2.16553 -4.04709,0.51837 -10.86613,1.39484 -15.1534,1.94772 -4.28729,0.55287 -8.10151,0.83109 -8.47603,0.61825 -0.57601,-0.32689 -0.46685,-0.76207 0.7057,-2.81629 z m 3.47497,-20.67179 c -0.69153,-6.34656 -1.28718,-10.5904 -1.94659,-13.86872 -0.90432,-4.49575 -1.43225,-3.38499 7.93263,-16.68995 3.75758,-5.33847 9.80804,-14.11147 13.4455,-19.49556 7.09565,-10.50289 8.16244,-11.637785 9.76616,-10.38986 0.63241,0.49212 0.63362,1.25578 0.006,4.03182 -1.93769,8.57511 -3.32601,18.64802 -4.57856,33.21973 -0.57732,6.71629 -1.25955,11.92336 -2.08652,15.92554 -0.39711,1.92186 -0.68451,2.51552 -1.44988,2.99483 -0.52502,0.32884 -5.01755,2.00449 -9.98339,3.72373 -5.8448,2.02353 -9.36006,2.99213 -9.96815,2.74666 -0.66531,-0.26859 -0.99714,-0.90985 -1.13751,-2.19822 z m -7.94112,-26.87579 c -1.45256,-2.3898 -2.70292,-4.57281 -2.77862,-4.85111 -0.0757,-0.27829 0.59623,-2.38967 1.4931,-4.69192 0.89688,-2.30228 2.05912,-5.91322 2.58277,-8.02434 0.89079,-3.59147 1.53793,-5.32887 2.57286,-6.90725 0.78012,-1.1899 2.38324,0.30674 3.51793,3.28423 4.7751,12.53034 4.92232,14.70799 1.41753,20.97011 -2.86652,5.12154 -3.70615,5.97261 -5.10373,5.17263 -0.58346,-0.33398 -2.24929,-2.56251 -3.70184,-4.95235 z m 32.8012,20.54623 c 0.0687,-2.41152 1.06568,-7.23806 1.73755,-8.41181 0.82692,-1.44468 5.06235,-4.48751 9.58442,-6.8857 3.21606,-1.70555 10.62208,-3.56753 11.71093,-2.94427 0.55863,0.31975 0.10044,1.2805 -4.16028,8.72415 -4.0898,7.14497 -4.96451,8.45461 -5.99805,8.98079 -1.77823,0.90526 -11.75375,2.24106 -12.69827,1.70042 -0.11331,-0.065 -0.19268,-0.58849 -0.1763,-1.16358 z"
       id="path414"
       inkscape:label="PineApple" /></g></svg>
